# xmcd
# Copyright (C) 1995-1998 Ti Kan
#
# Track frame offsets:
#       150
#       20266
#       35247
#       53363
#       64975
#       65885
#       72419
#       86124
#
# Disc length: 1155 seconds
#
# Revision: 0
# Processed by: cddbd v1.5.2PL0 Copyright (c) Steve Scherf et al.
# Submitted via: CD-Import v1.0
#
DISCID=74048108
DTITLE=Shit Can Devil - Shit Can Devil
DYEAR=2009
DGENRE=
TTITLE0=War Shit
TTITLE1=Born To Be Lost
TTITLE2=Spedina
TTITLE3=Torturers
TTITLE4=Kill Fuck I Hate You
TTITLE5=Feeding
TTITLE6=Deal With It
TTITLE7=Z.g.i.m.m.
EXTD=
EXTT0=
EXTT1=
EXTT2=
EXTT3=
EXTT4=
EXTT5=
EXTT6=
EXTT7=
PLAYORDER=
